{
  "accessors": [
    {
      "bufferView": 2,
      "componentType": 5126,
      "count": 4,
      "max": [
        6.475614070892334,
        4.2807011604309082,
        -0.47797399759292603
      ],
      "min": [
        -5.1120071411132812,
        -7.306920051574707,
        -0.47797399759292603
      ],
      "type": "VEC3"
    },
    {
      "bufferView": 2,
      "byteOffset": 48,
      "componentType": 5126,
      "count": 4,
      "max": [
        0,
        -0,
        1
      ],
      "min": [
        0,
        -0,
        1
      ],
      "type": "VEC3"
    },
    {
      "bufferView": 3,
      "componentType": 5126,
      "count": 4,
      "max": [
        1,
        0,
        0,
        1
      ],
      "min": [
        1,
        0,
        0,
        1
      ],
      "type": "VEC4"
    },
    {
      "bufferView": 1,
      "componentType": 5126,
      "count": 4,
      "max": [
        0.99989998340606689,
        0.99989998340606689
      ],
      "min": [
        9.9999997473787516e-05,
        9.9999997473787516e-05
      ],
      "type": "VEC2"
    },
    {
      "bufferView": 0,
      "componentType": 5125,
      "count": 6,
      "max": [
        3
      ],
      "min": [
        0
      ],
      "type": "SCALAR"
    },
    {
      "bufferView": 2,
      "byteOffset": 96,
      "componentType": 5126,
      "count": 88,
      "max": [
        0.25102299451828003,
        -2.9419209957122803,
        1.3632309436798096
      ],
      "min": [
        -4.1198468208312988,
        -5.9450550079345703,
        -1.3711370229721069
      ],
      "type": "VEC3"
    },
    {
      "bufferView": 2,
      "byteOffset": 1152,
      "componentType": 5126,
      "count": 88,
      "max": [
        0.92190182209014893,
        0.88548225164413452,
        0.91052168607711792
      ],
      "min": [
        -0.90882879495620728,
        -0.91444140672683716,
        -0.46909630298614502
      ],
      "type": "VEC3"
    },
    {
      "bufferView": 3,
      "byteOffset": 64,
      "componentType": 5126,
      "count": 88,
      "max": [
        0.92788445949554443,
        0.87145960330963135,
        0.51320099830627441,
        1
      ],
      "min": [
        -0.97053062915802002,
        -0.86194628477096558,
        -0.24096417427062988,
        1
      ],
      "type": "VEC4"
    },
    {
      "bufferView": 1,
      "byteOffset": 32,
      "componentType": 5126,
      "count": 88,
      "max": [
        0.41901698708534241,
        0.52003902196884155
      ],
      "min": [
        -0.0070259999483823776,
        0.036600999534130096
      ],
      "type": "VEC2"
    },
    {
      "bufferView": 0,
      "byteOffset": 24,
      "componentType": 5125,
      "count": 132,
      "max": [
        87
      ],
      "min": [
        0
      ],
      "type": "SCALAR"
    },
    {
      "bufferView": 2,
      "byteOffset": 2208,
      "componentType": 5126,
      "count": 2661,
      "max": [
        5.3946099281311035,
        3.1077549457550049,
        7.4783768653869629
      ],
      "min": [
        -3.4134519100189209,
        -5.4619898796081543,
        -0.58843100070953369
      ],
      "type": "VEC3"
    },
    {
      "bufferView": 2,
      "byteOffset": 34140,
      "componentType": 5126,
      "count": 2661,
      "max": [
        0.99964052438735962,
        1,
        0.99995565414428711
      ],
      "min": [
        -0.99999690055847168,
        -1,
        -0.99995565414428711
      ],
      "type": "VEC3"
    },
    {
      "bufferView": 3,
      "byteOffset": 1472,
      "componentType": 5126,
      "count": 2661,
      "max": [
        0.99849146604537964,
        0.99940234422683716,
        0.99992674589157104,
        1
      ],
      "min": [
        -0.99992406368255615,
        -0.99993026256561279,
        -1,
        -1
      ],
      "type": "VEC4"
    },
    {
      "bufferView": 1,
      "byteOffset": 736,
      "componentType": 5126,
      "count": 2661,
      "max": [
        0.98735302686691284,
        0.99451297521591187
      ],
      "min": [
        0.0054850000888109207,
        0.0054890001192688942
      ],
      "type": "VEC2"
    },
    {
      "bufferView": 0,
      "byteOffset": 552,
      "componentType": 5125,
      "count": 6117,
      "max": [
        2660
      ],
      "min": [
        0
      ],
      "type": "SCALAR"
    },
    {
      "bufferView": 2,
      "byteOffset": 66072,
      "componentType": 5126,
      "count": 2635,
      "max": [
        5.4283361434936523,
        3.1355481147766113,
        7.5171728134155273
      ],
      "min": [
        -3.4416079521179199,
        -5.499021053314209,
        -0.59970897436141968
      ],
      "type": "VEC3"
    },
    {
      "bufferView": 2,
      "byteOffset": 97692,
      "componentType": 5126,
      "count": 2635,
      "max": [
        0.99998629093170166,
        0.99997866153717041,
        0.99997341632843018
      ],
      "min": [
        -0.99965077638626099,
        -0.99997866153717041,
        -0.99994146823883057
      ],
      "type": "VEC3"
    },
    {
      "bufferView": 3,
      "byteOffset": 44048,
      "componentType": 5126,
      "count": 2635,
      "max": [
        0.99827563762664795,
        0.99861496686935425,
        0.99992150068283081,
        1
      ],
      "min": [
        -0.99997037649154663,
        -0.99967849254608154,
        -1,
        -1
      ],
      "type": "VEC4"
    },
    {
      "bufferView": 1,
      "byteOffset": 22024,
      "componentType": 5126,
      "count": 2635,
      "max": [
        0.98735302686691284,
        0.99451297521591187
      ],
      "min": [
        0.0054850000888109207,
        0.0054890001192688942
      ],
      "type": "VEC2"
    },
    {
      "bufferView": 0,
      "byteOffset": 25020,
      "componentType": 5125,
      "count": 6081,
      "max": [
        2634
      ],
      "min": [
        0
      ],
      "type": "SCALAR"
    }
  ],
  "asset": {
    "extras": {
      "author": "makcutka250 (https://sketchfab.com/makcutka250)",
      "license": "CC-BY-4.0 (http://creativecommons.org/licenses/by/4.0/)",
      "source": "https://sketchfab.com/3d-models/pirate-building-158b1c2284464854b1ae5c333e9b0544",
      "title": "Pirate building"
    },
    "generator": "Sketchfab-4.47.0",
    "version": "2.0"
  },
  "bufferViews": [
    {
      "buffer": 0,
      "byteLength": 49344,
      "byteOffset": 0,
      "name": "floatBufferViews",
      "target": 34963
    },
    {
      "buffer": 0,
      "byteLength": 43104,
      "byteOffset": 49344,
      "byteStride": 8,
      "name": "floatBufferViews",
      "target": 34962
    },
    {
      "buffer": 0,
      "byteLength": 129312,
      "byteOffset": 92448,
      "byteStride": 12,
      "name": "floatBufferViews",
      "target": 34962
    },
    {
      "buffer": 0,
      "byteLength": 86208,
      "byteOffset": 221760,
      "byteStride": 16,
      "name": "floatBufferViews",
      "target": 34962
    }
  ],
  "buffers": [
    {
      "byteLength": 307968,
      "uri": "scene.bin"
    }
  ],
  "images": [
    {
      "uri": "textures/material_3_baseColor.png"
    },
    {
      "uri": "textures/material_1_baseColor.png"
    },
    {
      "uri": "textures/material_2_baseColor.png"
    }
  ],
  "materials": [
    {
      "doubleSided": false,
      "name": "material_0",
      "pbrMetallicRoughness": {
        "baseColorFactor": [
          0.0043914419999999997,
          0.011612245199999999,
          0.0202885631,
          1
        ],
        "metallicFactor": 0,
        "roughnessFactor": 0.59999999999999998
      }
    },
    {
      "alphaMode": "BLEND",
      "doubleSided": true,
      "name": "material_1",
      "pbrMetallicRoughness": {
        "baseColorFactor": [
          1,
          1,
          1,
          1
        ],
        "baseColorTexture": {
          "index": 1,
          "texCoord": 0
        },
        "metallicFactor": 0,
        "roughnessFactor": 0.59999999999999998
      }
    },
    {
      "alphaMode": "BLEND",
      "doubleSided": true,
      "name": "material_2",
      "pbrMetallicRoughness": {
        "baseColorFactor": [
          1,
          1,
          1,
          1
        ],
        "baseColorTexture": {
          "index": 2,
          "texCoord": 0
        },
        "metallicFactor": 0,
        "roughnessFactor": 0.59999999999999998
      }
    },
    {
      "doubleSided": false,
      "name": "material_3",
      "pbrMetallicRoughness": {
        "baseColorFactor": [
          1,
          1,
          1,
          1
        ],
        "baseColorTexture": {
          "index": 0,
          "texCoord": 0
        },
        "metallicFactor": 0,
        "roughnessFactor": 0.59999999999999998
      }
    }
  ],
  "meshes": [
    {
      "primitives": [
        {
          "attributes": {
            "NORMAL": 1,
            "POSITION": 0,
            "TANGENT": 2,
            "TEXCOORD_0": 3
          },
          "indices": 4,
          "material": 3,
          "mode": 4
        }
      ]
    },
    {
      "primitives": [
        {
          "attributes": {
            "NORMAL": 6,
            "POSITION": 5,
            "TANGENT": 7,
            "TEXCOORD_0": 8
          },
          "indices": 9,
          "material": 2,
          "mode": 4
        }
      ]
    },
    {
      "primitives": [
        {
          "attributes": {
            "NORMAL": 11,
            "POSITION": 10,
            "TANGENT": 12,
            "TEXCOORD_0": 13
          },
          "indices": 14,
          "material": 1,
          "mode": 4
        }
      ]
    },
    {
      "primitives": [
        {
          "attributes": {
            "NORMAL": 16,
            "POSITION": 15,
            "TANGENT": 17,
            "TEXCOORD_0": 18
          },
          "indices": 19,
          "material": 0,
          "mode": 4
        }
      ]
    }
  ],
  "nodes": [
    {
      "children": [
        1
      ],
      "name": "RootNode (gltf orientation matrix)",
      "rotation": [
        -0.70710678118654746,
        -0,
        -0,
        0.70710678118654757
      ]
    },
    {
      "children": [
        2
      ],
      "name": "RootNode (model correction matrix)"
    },
    {
      "children": [
        3,
        5,
        7,
        9
      ],
      "name": "zbrush_concat.osgb.cleaner.materialmerger.gles"
    },
    {
      "children": [
        4
      ],
      "name": "/sketchfab-data/processing/urls/d6f6ec49efab4877abc9ebc6e6cbc78c/preprocess/waterplane.obj"
    },
    {
      "mesh": 0,
      "name": ""
    },
    {
      "children": [
        6
      ],
      "name": "/sketchfab-data/processing/urls/d6f6ec49efab4877abc9ebc6e6cbc78c/preprocess/grass.obj"
    },
    {
      "mesh": 1,
      "name": ""
    },
    {
      "children": [
        8
      ],
      "name": "/sketchfab-data/processing/urls/d6f6ec49efab4877abc9ebc6e6cbc78c/preprocess/Piratebuilding.obj"
    },
    {
      "mesh": 2,
      "name": ""
    },
    {
      "children": [
        10
      ],
      "name": "/sketchfab-data/processing/urls/d6f6ec49efab4877abc9ebc6e6cbc78c/preprocess/BuildingOutline.obj"
    },
    {
      "mesh": 3,
      "name": ""
    }
  ],
  "samplers": [
    {
      "magFilter": 9729,
      "minFilter": 9987,
      "wrapS": 10497,
      "wrapT": 10497
    }
  ],
  "scene": 0,
  "scenes": [
    {
      "name": "OSG_Scene",
      "nodes": [
        0
      ]
    }
  ],
  "textures": [
    {
      "sampler": 0,
      "source": 0
    },
    {
      "sampler": 0,
      "source": 1
    },
    {
      "sampler": 0,
      "source": 2
    }
  ]
}

