{"accessors":[{"name":"JZ_E_1__WT002_1_0_positions","componentType":5126,"count":44,"min":[-6.9255499839782715,-26.481950759887695,-0.6620000004768372],"max":[6.9255499839782715,26.481950759887695,0.6620000004768372],"type":"VEC3","bufferView":0,"byteOffset":0},{"name":"JZ_E_1__WT002_1_0_normals","componentType":5126,"count":44,"min":[-0.7861758470535278,-0.9967159628868103,-1],"max":[0.9666979312896729,0.8023179173469543,1],"type":"VEC3","bufferView":1,"byteOffset":0},{"name":"JZ_E_1__WT002_1_0_indices","componentType":5123,"count":132,"min":[0],"max":[43],"type":"SCALAR","bufferView":2,"byteOffset":0}],"asset":{"generator":"obj2gltf","version":"2.0"},"buffers":[{"name":"JZ(E-1)-WT002","byteLength":1320,"uri":"data:application/octet-stream;base64,"}],"bufferViews":[{"name":"bufferView_0","buffer":0,"byteLength":528,"byteOffset":0,"byteStride":12,"target":34962},{"name":"bufferView_1","buffer":0,"byteLength":528,"byteOffset":528,"byteStride":12,"target":34962},{"name":"bufferView_2","buffer":0,"byteLength":264,"byteOffset":1056,"target":34963}],"materials":[{"name":"Material__48","pbrMetallicRoughness":{"baseColorFactor":[0.3765,0.0039,1,1],"metallicFactor":0,"roughnessFactor":0.99},"emissiveFactor":[0,0,0],"alphaMode":"OPAQUE","doubleSided":false}],"meshes":[{"name":"JZ_E_1__WT002_1","primitives":[{"attributes":{"POSITION":0,"NORMAL":1},"indices":2,"material":0,"mode":4}]}],"nodes":[{"name":"JZ_E_1__WT002","mesh":0}],"scene":0,"scenes":[{"nodes":[0]}]}